<svg width="159" height="195" viewBox="0 0 159 195" fill="none" xmlns="http://www.w3.org/2000/svg">
<path d="M53.709 103.459V194.097H0.00784302V64.1286C0.00831738 61.0159 1.0312 57.9895 2.91923 55.5148C4.80726 53.04 7.4559 51.2537 10.4579 50.431C13.46 49.608 16.6492 49.7939 19.5353 50.9601C22.4213 52.1264 24.8444 54.2081 26.4321 56.8856C26.4535 56.907 26.4534 56.9284 26.4748 56.9471L53.709 103.459Z" fill="url(#paint0_linear)"/>
<path d="M158.999 0V130.097C158.999 133.217 157.973 136.252 156.078 138.731C154.182 141.21 151.523 142.995 148.511 143.813C145.499 144.63 142.302 144.433 139.414 143.252C136.525 142.071 134.106 139.971 132.529 137.278L105.298 90.7372V0H158.999Z" fill="url(#paint1_linear)"/>
<path d="M158.999 130.097V194.11H106.812L69.5189 130.436C69.5189 130.415 69.4975 130.415 69.4975 130.393L69.4761 130.372L53.7013 103.459L26.467 56.9604C26.4456 56.9417 26.4455 56.9203 26.4241 56.8989C24.8365 54.2215 22.4135 52.1395 19.5274 50.9735C16.6414 49.8072 13.4521 49.6214 10.4501 50.4441C7.44806 51.2671 4.79942 53.0531 2.91139 55.5279C1.02335 58.0026 0.000474367 61.0293 0 64.142V0H52.188L95.935 74.7779C95.9703 74.8065 95.9994 74.8418 96.0205 74.8822L102.945 86.732L102.967 86.7534C102.988 86.7748 102.988 86.8176 103.01 86.8363L105.29 90.7372L132.524 137.278C134.1 139.974 136.52 142.076 139.409 143.259C142.299 144.441 145.498 144.639 148.511 143.822C151.524 143.005 154.185 141.217 156.081 138.736C157.976 136.255 159.002 133.219 158.999 130.097Z" fill="url(#paint2_linear)"/>
<g style="mix-blend-mode:multiply" opacity="0.16">
<g style="mix-blend-mode:multiply" opacity="0.16">
<path d="M53.709 103.458V122.383C32.2286 86.7745 9.51283 87.9884 0.00784302 90.5445V64.1417C0.00831738 61.029 1.0312 58.0026 2.91923 55.5279C4.80726 53.0528 7.4559 51.2668 10.4579 50.4438C13.46 49.6211 16.6492 49.8069 19.5353 50.9732C22.4213 52.1395 24.8444 54.2212 26.4321 56.8987C26.4535 56.9201 26.4534 56.9414 26.4748 56.9602L53.709 103.458Z" fill="black"/>
</g>
</g>
<g style="mix-blend-mode:multiply" opacity="0.16">
<g style="mix-blend-mode:multiply" opacity="0.16">
<path d="M158.999 103.587V130.096C158.999 133.217 157.973 136.251 156.078 138.73C154.182 141.209 151.523 142.995 148.511 143.812C145.499 144.63 142.302 144.432 139.414 143.251C136.525 142.07 134.106 139.971 132.529 137.278L105.298 90.737V75.1814C127.759 100.817 148.109 104.14 158.999 103.587Z" fill="black"/>
</g>
</g>
<g style="mix-blend-mode:screen" opacity="0.5">
<g style="mix-blend-mode:screen" opacity="0.5">
<path d="M95.9431 74.7779C91.9165 68.8102 88.1011 62.6928 84.1788 56.685L78.3822 47.5009L72.6739 38.306C68.8577 32.1459 65.0932 25.966 61.3802 19.7666C57.8429 13.9486 54.4126 8.06651 50.9367 2.22717C42.6483 2.26995 34.3812 2.16299 26.1115 2.16299L13.0505 1.99458C9.27705 1.9518 5.49816 1.88762 1.714 1.80206C1.56427 9.00501 1.35038 16.1866 1.11509 23.3895C0.732753 31.1887 0.518855 38.9878 0.00817871 46.787V0H52.1961L95.9431 74.7779Z" fill="white"/>
</g>
</g>
<g style="mix-blend-mode:multiply" opacity="0.25">
<g style="mix-blend-mode:multiply" opacity="0.25">
<path d="M158.998 0V123.49C158.252 113.199 157.825 102.903 157.464 92.6115L157.079 77.1843L156.846 61.7356L156.761 46.3084L156.846 30.8785L157.079 15.4299L157.443 1.44912C152.945 1.28068 148.451 1.13095 143.975 0.895664C138.967 0.684442 133.938 0.360949 128.93 0H158.998Z" fill="black"/>
</g>
</g>
<g style="mix-blend-mode:screen" opacity="0.5">
<g style="mix-blend-mode:screen" opacity="0.5">
<path d="M150.601 194.11H106.811L69.5186 130.436C73.1201 135.422 76.5507 140.516 79.9195 145.652C81.6013 148.229 83.2855 150.81 84.9271 153.43C86.5688 156.05 88.2294 158.609 89.8283 161.25C93.0864 166.473 96.2681 171.744 99.3734 177.063C100.978 179.683 102.507 182.367 104.041 185.033L108.052 192.022C114.937 192.15 121.819 192.34 128.723 192.661C136.006 192.982 143.315 193.407 150.601 194.11Z" fill="white"/>
</g>
</g>
<g style="mix-blend-mode:multiply" opacity="0.25">
<g style="mix-blend-mode:multiply" opacity="0.25">
<path d="M53.7085 128.455V194.11H7.82787C11.6432 193.725 15.4773 193.428 19.2927 193.172C23.108 192.915 26.9421 192.746 30.7896 192.554C34.6023 192.426 38.4176 192.236 42.2544 192.172C45.3425 192.108 48.4333 192.022 51.5455 191.979C51.5027 187.228 51.4599 182.453 51.5241 177.702C51.5455 172.226 51.6711 166.739 51.7915 161.272C51.9626 155.817 52.1765 150.339 52.4733 144.864C52.77 139.388 53.131 133.931 53.7085 128.455Z" fill="black"/>
</g>
</g>
<g style="mix-blend-mode:screen" opacity="0.7">
<g style="mix-blend-mode:screen" opacity="0.7">
<path d="M53.7094 103.459L26.4752 56.9604C26.4538 56.9417 26.4538 56.9203 26.4324 56.8989C24.8448 54.2215 22.4216 52.1395 19.5356 50.9735C16.6495 49.8072 13.4603 49.6214 10.4583 50.4441C7.45624 51.2671 4.8076 53.0531 2.91957 55.5279C1.03153 58.0026 0.00865308 61.0293 0.00817871 64.142V0C0.411907 5.34739 0.604483 10.6948 0.882547 16.0261C1.03227 18.6998 1.13651 21.3735 1.22206 24.0472L1.48945 32.0683C1.61779 37.4157 1.80765 42.7631 1.85043 48.0945C1.87181 49.8404 1.91455 51.5703 1.93594 53.3162C2.27817 52.9526 2.63909 52.5916 2.98133 52.228C3.6489 51.6395 4.34585 51.0855 5.06951 50.5676C5.81547 50.097 6.62563 49.7147 7.39298 49.3083C8.22183 48.9687 9.05329 48.7121 9.88481 48.4153C10.7591 48.2442 11.6121 48.0517 12.4837 47.9447C13.3794 47.9019 14.2536 47.8378 15.1279 47.8592C16.0022 47.9875 16.8953 48.0089 17.7696 48.2228C18.6311 48.4289 19.4778 48.6926 20.3042 49.0115C21.1225 49.3559 21.9135 49.7615 22.6705 50.2254C23.4225 50.7058 24.1375 51.2422 24.8094 51.8296C25.4056 52.4686 26.0874 53.0648 26.6222 53.7466L28.1141 55.8856L27.8467 55.5648L28.1435 55.9712C32.5765 63.7711 36.9311 71.6275 41.2072 79.5398C43.3606 83.4808 45.4701 87.4513 47.5358 91.4511C49.6159 95.4456 51.7255 99.4107 53.7094 103.459Z" fill="white"/>
</g>
</g>
<g style="mix-blend-mode:screen" opacity="0.7">
<g style="mix-blend-mode:screen" opacity="0.7">
<path d="M159 130.096V194.11C158.615 188.781 158.425 183.434 158.147 178.105C157.869 172.777 157.741 167.429 157.529 162.103C157.423 156.775 157.262 151.427 157.166 146.098C157.145 144.353 157.102 142.604 157.081 140.858C156.634 141.347 156.166 141.837 155.696 142.307C153.965 143.809 151.941 144.934 149.752 145.609C148.666 145.945 147.553 146.188 146.426 146.334C145.284 146.437 144.135 146.423 142.996 146.291C140.71 146.061 138.5 145.342 136.517 144.181C135.519 143.581 134.596 142.863 133.768 142.043L132.512 140.743C132.192 140.34 131.893 139.92 131.616 139.486L131.191 138.866L130.999 138.569L130.806 138.27L130.699 138.099L129.975 136.799L128.507 134.201L125.544 128.979L119.748 118.517L114.015 107.99C112.098 104.496 110.286 100.937 108.433 97.3998C106.598 93.9053 104.767 90.3894 103.018 86.8494L105.299 90.7503L132.533 137.291C134.111 139.984 136.531 142.083 139.421 143.263C142.31 144.442 145.507 144.638 148.519 143.819C151.531 143.001 154.189 141.213 156.084 138.733C157.978 136.252 159.003 133.217 159 130.096Z" fill="white"/>
</g>
</g>
<defs>
<linearGradient id="paint0_linear" x1="26.8584" y1="193.809" x2="26.8584" y2="64.3428" gradientUnits="userSpaceOnUse">
<stop stop-color="#233B55"/>
<stop offset="1" stop-color="#131D32"/>
</linearGradient>
<linearGradient id="paint1_linear" x1="132.148" y1="3.4634" x2="132.148" y2="128.867" gradientUnits="userSpaceOnUse">
<stop stop-color="#233B55"/>
<stop offset="1" stop-color="#131D32"/>
</linearGradient>
<linearGradient id="paint2_linear" x1="48" y1="38" x2="159" y2="120" gradientUnits="userSpaceOnUse">
<stop stop-color="#9AE33E"/>
<stop offset="0.255208" stop-color="#84D93B"/>
<stop offset="0.427083" stop-color="#71D238"/>
<stop offset="0.598958" stop-color="#5FCA36"/>
<stop offset="0.765625" stop-color="#4CC233"/>
<stop offset="1" stop-color="#28B32E"/>
</linearGradient>
</defs>
</svg>
